<?xml version="1.0" encoding="UTF-8"?>
<svg id="Ebene_1" data-name="Ebene 1" xmlns="http://www.w3.org/2000/svg" xmlns:xlink="http://www.w3.org/1999/xlink" viewBox="0 0 127.6 100.62">
  <defs>
    <style>
      .cls-1 {
        fill: url(#Unbenannter_Verlauf_27-17);
      }

      .cls-2 {
        fill: url(#Unbenannter_Verlauf_27-19);
      }

      .cls-3 {
        fill: url(#Unbenannter_Verlauf_27-12);
      }

      .cls-4 {
        fill: url(#Unbenannter_Verlauf_27-26);
      }

      .cls-5 {
        fill: url(#Unbenannter_Verlauf_27-6);
      }

      .cls-6 {
        fill: url(#Unbenannter_Verlauf_36-22);
      }

      .cls-7 {
        fill: url(#Unbenannter_Verlauf_27-13);
      }

      .cls-8 {
        fill: url(#Unbenannter_Verlauf_36-20);
      }

      .cls-9 {
        fill: url(#Unbenannter_Verlauf_27-44);
      }

      .cls-10 {
        fill: url(#Unbenannter_Verlauf_27-32);
      }

      .cls-11 {
        fill: url(#Unbenannter_Verlauf_36-11);
      }

      .cls-12 {
        fill: url(#Unbenannter_Verlauf_27-10);
      }

      .cls-13 {
        fill: #1d1d1b;
      }

      .cls-14 {
        fill: url(#Unbenannter_Verlauf_36);
      }

      .cls-15 {
        fill: url(#Unbenannter_Verlauf_36-15);
      }

      .cls-16 {
        fill: url(#Unbenannter_Verlauf_27-37);
      }

      .cls-17 {
        fill: url(#Unbenannter_Verlauf_27-31);
      }

      .cls-18 {
        fill: url(#Unbenannter_Verlauf_27-11);
      }

      .cls-19 {
        fill: url(#Unbenannter_Verlauf_36-21);
      }

      .cls-20 {
        fill: url(#Unbenannter_Verlauf_36-16);
      }

      .cls-21 {
        fill: url(#Unbenannter_Verlauf_27-42);
      }

      .cls-22 {
        fill: url(#Unbenannter_Verlauf_27-2);
      }

      .cls-23 {
        fill: url(#Unbenannter_Verlauf_36-14);
      }

      .cls-24 {
        fill: url(#Unbenannter_Verlauf_27-25);
      }

      .cls-25 {
        fill: url(#Unbenannter_Verlauf_27-16);
      }

      .cls-26 {
        fill: url(#Unbenannter_Verlauf_27-5);
      }

      .cls-27 {
        fill: url(#Unbenannter_Verlauf_27-3);
      }

      .cls-28 {
        fill: url(#Unbenannter_Verlauf_27-9);
      }

      .cls-29 {
        fill: url(#Unbenannter_Verlauf_27-35);
      }

      .cls-30 {
        fill: url(#Unbenannter_Verlauf_27-33);
      }

      .cls-31 {
        fill: url(#Unbenannter_Verlauf_27-41);
      }

      .cls-32 {
        fill: url(#Unbenannter_Verlauf_27-38);
      }

      .cls-33 {
        fill: url(#Unbenannter_Verlauf_27-24);
      }

      .cls-34 {
        fill: url(#Unbenannter_Verlauf_36-23);
      }

      .cls-35 {
        fill: url(#Unbenannter_Verlauf_36-8);
      }

      .cls-36 {
        fill: url(#Unbenannter_Verlauf_27-40);
      }

      .cls-37 {
        fill: url(#Unbenannter_Verlauf_36-12);
      }

      .cls-38 {
        fill: url(#Unbenannter_Verlauf_36-24);
      }

      .cls-39 {
        fill: url(#Unbenannter_Verlauf_36-4);
      }

      .cls-40 {
        fill: url(#Unbenannter_Verlauf_36-7);
      }

      .cls-41 {
        fill: url(#Unbenannter_Verlauf_36-19);
      }

      .cls-42 {
        fill: url(#Unbenannter_Verlauf_27-27);
      }

      .cls-43 {
        fill: url(#Unbenannter_Verlauf_27);
      }

      .cls-44 {
        fill: url(#Unbenannter_Verlauf_27-28);
      }

      .cls-45 {
        fill: url(#Unbenannter_Verlauf_36-5);
      }

      .cls-46 {
        fill: url(#Unbenannter_Verlauf_36-9);
      }

      .cls-47 {
        fill: url(#Unbenannter_Verlauf_36-13);
      }

      .cls-48 {
        fill: url(#Unbenannter_Verlauf_27-20);
      }

      .cls-49 {
        fill: url(#Unbenannter_Verlauf_36-6);
      }

      .cls-50 {
        fill: url(#Unbenannter_Verlauf_27-8);
      }

      .cls-51 {
        fill: url(#Unbenannter_Verlauf_27-34);
      }

      .cls-52 {
        fill: url(#Unbenannter_Verlauf_27-36);
      }

      .cls-53 {
        fill: url(#Unbenannter_Verlauf_27-14);
      }

      .cls-54 {
        fill: url(#Unbenannter_Verlauf_27-23);
      }

      .cls-55 {
        fill: url(#Unbenannter_Verlauf_27-21);
      }

      .cls-56 {
        fill: url(#Unbenannter_Verlauf_27-39);
      }

      .cls-57 {
        fill: url(#Unbenannter_Verlauf_27-22);
      }

      .cls-58 {
        fill: url(#Unbenannter_Verlauf_27-15);
      }

      .cls-59 {
        fill: url(#Unbenannter_Verlauf_27-29);
      }

      .cls-60 {
        fill: url(#Unbenannter_Verlauf_36-25);
      }

      .cls-61 {
        fill: url(#Unbenannter_Verlauf_36-18);
      }

      .cls-62 {
        fill: url(#Unbenannter_Verlauf_27-43);
      }

      .cls-63 {
        fill: url(#Unbenannter_Verlauf_27-4);
      }

      .cls-64 {
        fill: url(#Unbenannter_Verlauf_36-10);
      }

      .cls-65 {
        fill: url(#Unbenannter_Verlauf_27-7);
      }

      .cls-66 {
        fill: url(#Unbenannter_Verlauf_27-18);
      }

      .cls-67 {
        fill: url(#Unbenannter_Verlauf_36-3);
      }

      .cls-68 {
        fill: url(#Unbenannter_Verlauf_36-2);
      }

      .cls-69 {
        fill: url(#Unbenannter_Verlauf_36-17);
      }

      .cls-70 {
        fill: url(#Unbenannter_Verlauf_27-30);
      }
    </style>
    <linearGradient id="Unbenannter_Verlauf_36" data-name="Unbenannter Verlauf 36" x1="63.81" y1="55.52" x2="64.63" y2="56.35" gradientUnits="userSpaceOnUse">
      <stop offset="0" stop-color="#1a1c39"/>
      <stop offset=".07" stop-color="#1a1c2f"/>
      <stop offset=".22" stop-color="#1c1c23"/>
      <stop offset=".43" stop-color="#1c1c1c"/>
      <stop offset="1" stop-color="#1d1d1b"/>
    </linearGradient>
    <linearGradient id="Unbenannter_Verlauf_27" data-name="Unbenannter Verlauf 27" x1="1.01" y1="-1.01" x2="3.9" y2="1.88" gradientUnits="userSpaceOnUse">
      <stop offset="0" stop-color="#1a1c39"/>
      <stop offset=".24" stop-color="#1b1c2c"/>
      <stop offset=".64" stop-color="#1c1c1f"/>
      <stop offset="1" stop-color="#1d1d1b"/>
    </linearGradient>
    <linearGradient id="Unbenannter_Verlauf_27-2" data-name="Unbenannter Verlauf 27" x1="14.12" y1="-1.68" x2="17.7" y2="1.89" xlink:href="#Unbenannter_Verlauf_27"/>
    <linearGradient id="Unbenannter_Verlauf_27-3" data-name="Unbenannter Verlauf 27" x1="55.53" y1="-1.69" x2="59.1" y2="1.89" xlink:href="#Unbenannter_Verlauf_27"/>
    <linearGradient id="Unbenannter_Verlauf_27-4" data-name="Unbenannter Verlauf 27" x1="-1.33" y1="3.39" x2="1.47" y2="6.19" xlink:href="#Unbenannter_Verlauf_27"/>
    <linearGradient id="Unbenannter_Verlauf_27-5" data-name="Unbenannter Verlauf 27" x1="4.89" y1="1.12" x2="13.13" y2="9.37" xlink:href="#Unbenannter_Verlauf_27"/>
    <linearGradient id="Unbenannter_Verlauf_27-6" data-name="Unbenannter Verlauf 27" x1="17.85" y1="1.96" x2="26.1" y2="10.21" xlink:href="#Unbenannter_Verlauf_27"/>
    <linearGradient id="Unbenannter_Verlauf_27-7" data-name="Unbenannter Verlauf 27" x1="46.01" y1="1.2" x2="54.19" y2="9.37" xlink:href="#Unbenannter_Verlauf_27"/>
    <linearGradient id="Unbenannter_Verlauf_27-8" data-name="Unbenannter Verlauf 27" x1="60.06" y1="1.16" x2="68.3" y2="9.41" xlink:href="#Unbenannter_Verlauf_27"/>
    <linearGradient id="Unbenannter_Verlauf_27-9" data-name="Unbenannter Verlauf 27" x1="56.84" y1="4.37" x2="62.81" y2="10.34" xlink:href="#Unbenannter_Verlauf_27"/>
    <linearGradient id="Unbenannter_Verlauf_27-10" data-name="Unbenannter Verlauf 27" x1="43.89" y1="6.92" x2="45.69" y2="8.72" xlink:href="#Unbenannter_Verlauf_27"/>
    <linearGradient id="Unbenannter_Verlauf_27-11" data-name="Unbenannter Verlauf 27" x1="-2.39" y1="10.05" x2="6.62" y2="19.06" xlink:href="#Unbenannter_Verlauf_27"/>
    <linearGradient id="Unbenannter_Verlauf_27-12" data-name="Unbenannter Verlauf 27" x1="5.38" y1="19.31" x2="5.88" y2="19.81" xlink:href="#Unbenannter_Verlauf_27"/>
    <linearGradient id="Unbenannter_Verlauf_27-13" data-name="Unbenannter Verlauf 27" x1="11.4" y1="10.06" x2="20.42" y2="19.07" xlink:href="#Unbenannter_Verlauf_27"/>
    <linearGradient id="Unbenannter_Verlauf_27-14" data-name="Unbenannter Verlauf 27" x1="24.19" y1="12.25" x2="32.44" y2="20.49" xlink:href="#Unbenannter_Verlauf_27"/>
    <linearGradient id="Unbenannter_Verlauf_27-15" data-name="Unbenannter Verlauf 27" x1="39.7" y1="11.02" x2="47.88" y2="19.2" xlink:href="#Unbenannter_Verlauf_27"/>
    <linearGradient id="Unbenannter_Verlauf_36-2" data-name="Unbenannter Verlauf 36" x1="52.81" y1="10.05" x2="61.83" y2="19.06" xlink:href="#Unbenannter_Verlauf_36"/>
    <linearGradient id="Unbenannter_Verlauf_36-3" data-name="Unbenannter Verlauf 36" x1="49.94" y1="14.45" x2="55.91" y2="20.42" xlink:href="#Unbenannter_Verlauf_36"/>
    <linearGradient id="Unbenannter_Verlauf_36-4" data-name="Unbenannter Verlauf 36" x1="65.45" y1="12.75" x2="70.62" y2="17.91" xlink:href="#Unbenannter_Verlauf_36"/>
    <linearGradient id="Unbenannter_Verlauf_27-16" data-name="Unbenannter Verlauf 27" x1="67.31" y1="11.07" x2="67.37" y2="11.13" xlink:href="#Unbenannter_Verlauf_27"/>
    <linearGradient id="Unbenannter_Verlauf_27-17" data-name="Unbenannter Verlauf 27" x1="8.57" y1="15.8" x2="8.87" y2="16.09" xlink:href="#Unbenannter_Verlauf_27"/>
    <linearGradient id="Unbenannter_Verlauf_27-18" data-name="Unbenannter Verlauf 27" x1="-1.34" y1="23.29" x2="1.47" y2="26.09" xlink:href="#Unbenannter_Verlauf_27"/>
    <linearGradient id="Unbenannter_Verlauf_27-19" data-name="Unbenannter Verlauf 27" x1="1.4" y1="23.71" x2="1.71" y2="24.02" xlink:href="#Unbenannter_Verlauf_27"/>
    <linearGradient id="Unbenannter_Verlauf_27-20" data-name="Unbenannter Verlauf 27" x1="4.51" y1="19.88" x2="13.29" y2="28.66" xlink:href="#Unbenannter_Verlauf_27"/>
    <linearGradient id="Unbenannter_Verlauf_27-21" data-name="Unbenannter Verlauf 27" x1="9.39" y1="16.74" x2="11.19" y2="18.54" xlink:href="#Unbenannter_Verlauf_27"/>
    <linearGradient id="Unbenannter_Verlauf_27-22" data-name="Unbenannter Verlauf 27" x1="18.31" y1="19.87" x2="27.33" y2="28.88" xlink:href="#Unbenannter_Verlauf_27"/>
    <linearGradient id="Unbenannter_Verlauf_27-23" data-name="Unbenannter Verlauf 27" x1="32.52" y1="21" x2="40.77" y2="29.24" xlink:href="#Unbenannter_Verlauf_27"/>
    <linearGradient id="Unbenannter_Verlauf_27-24" data-name="Unbenannter Verlauf 27" x1="29.35" y1="24.16" x2="33.42" y2="28.23" xlink:href="#Unbenannter_Verlauf_27"/>
    <linearGradient id="Unbenannter_Verlauf_36-5" data-name="Unbenannter Verlauf 36" x1="45.91" y1="19.87" x2="54.93" y2="28.88" xlink:href="#Unbenannter_Verlauf_36"/>
    <linearGradient id="Unbenannter_Verlauf_36-6" data-name="Unbenannter Verlauf 36" x1="59.71" y1="19.87" x2="68.73" y2="28.88" xlink:href="#Unbenannter_Verlauf_36"/>
    <linearGradient id="Unbenannter_Verlauf_36-7" data-name="Unbenannter Verlauf 36" x1="60.87" y1="20.13" x2="61.08" y2="20.34" xlink:href="#Unbenannter_Verlauf_36"/>
    <linearGradient id="Unbenannter_Verlauf_27-25" data-name="Unbenannter Verlauf 27" x1="32.98" y1="39.4" x2="33.48" y2="39.91" xlink:href="#Unbenannter_Verlauf_27"/>
    <linearGradient id="Unbenannter_Verlauf_27-26" data-name="Unbenannter Verlauf 27" x1="35.9" y1="33.99" x2="36.21" y2="34.3" xlink:href="#Unbenannter_Verlauf_27"/>
    <linearGradient id="Unbenannter_Verlauf_27-27" data-name="Unbenannter Verlauf 27" x1="49.7" y1="33.99" x2="50.01" y2="34.3" xlink:href="#Unbenannter_Verlauf_27"/>
    <linearGradient id="Unbenannter_Verlauf_36-8" data-name="Unbenannter Verlauf 36" x1="57.69" y1="27.02" x2="59.49" y2="28.82" xlink:href="#Unbenannter_Verlauf_36"/>
    <linearGradient id="Unbenannter_Verlauf_36-9" data-name="Unbenannter Verlauf 36" x1="63.5" y1="33.99" x2="63.81" y2="34.3" xlink:href="#Unbenannter_Verlauf_36"/>
    <linearGradient id="Unbenannter_Verlauf_27-28" data-name="Unbenannter Verlauf 27" x1="-2.39" y1="30.14" x2="6.63" y2="39.16" xlink:href="#Unbenannter_Verlauf_27"/>
    <linearGradient id="Unbenannter_Verlauf_27-29" data-name="Unbenannter Verlauf 27" x1="4.83" y1="30.11" x2="6.67" y2="31.95" xlink:href="#Unbenannter_Verlauf_27"/>
    <linearGradient id="Unbenannter_Verlauf_27-30" data-name="Unbenannter Verlauf 27" x1="12.75" y1="28.81" x2="21.76" y2="37.81" xlink:href="#Unbenannter_Verlauf_27"/>
    <linearGradient id="Unbenannter_Verlauf_27-31" data-name="Unbenannter Verlauf 27" x1="25.2" y1="30.15" x2="34.22" y2="39.16" xlink:href="#Unbenannter_Verlauf_27"/>
    <linearGradient id="Unbenannter_Verlauf_27-32" data-name="Unbenannter Verlauf 27" x1="39.14" y1="30.01" x2="43.73" y2="34.61" xlink:href="#Unbenannter_Verlauf_27"/>
    <linearGradient id="Unbenannter_Verlauf_27-33" data-name="Unbenannter Verlauf 27" x1="46.38" y1="33.48" x2="49.67" y2="36.76" xlink:href="#Unbenannter_Verlauf_27"/>
    <linearGradient id="Unbenannter_Verlauf_36-10" data-name="Unbenannter Verlauf 36" x1="52.81" y1="30.16" x2="61.82" y2="39.16" xlink:href="#Unbenannter_Verlauf_36"/>
    <linearGradient id="Unbenannter_Verlauf_36-11" data-name="Unbenannter Verlauf 36" x1="56.87" y1="26.08" x2="57.17" y2="26.37" xlink:href="#Unbenannter_Verlauf_36"/>
    <linearGradient id="Unbenannter_Verlauf_36-12" data-name="Unbenannter Verlauf 36" x1="65.46" y1="32.85" x2="70.62" y2="38.01" xlink:href="#Unbenannter_Verlauf_36"/>
    <linearGradient id="Unbenannter_Verlauf_27-34" data-name="Unbenannter Verlauf 27" x1="29" y1="43.8" x2="29.31" y2="44.11" xlink:href="#Unbenannter_Verlauf_27"/>
    <linearGradient id="Unbenannter_Verlauf_36-13" data-name="Unbenannter Verlauf 36" x1="50.79" y1="36.83" x2="52.59" y2="38.63" xlink:href="#Unbenannter_Verlauf_36"/>
    <linearGradient id="Unbenannter_Verlauf_36-14" data-name="Unbenannter Verlauf 36" x1="64.59" y1="36.83" x2="66.39" y2="38.63" xlink:href="#Unbenannter_Verlauf_36"/>
    <linearGradient id="Unbenannter_Verlauf_27-35" data-name="Unbenannter Verlauf 27" x1="-1.34" y1="43.38" x2="1.47" y2="46.18" xlink:href="#Unbenannter_Verlauf_27"/>
    <linearGradient id="Unbenannter_Verlauf_27-36" data-name="Unbenannter Verlauf 27" x1="4.5" y1="39.96" x2="13.12" y2="48.57" xlink:href="#Unbenannter_Verlauf_27"/>
    <linearGradient id="Unbenannter_Verlauf_27-37" data-name="Unbenannter Verlauf 27" x1="18.87" y1="39.39" x2="27.89" y2="48.41" xlink:href="#Unbenannter_Verlauf_27"/>
    <linearGradient id="Unbenannter_Verlauf_27-38" data-name="Unbenannter Verlauf 27" x1="32.11" y1="39.96" x2="38.42" y2="46.27" xlink:href="#Unbenannter_Verlauf_27"/>
    <linearGradient id="Unbenannter_Verlauf_36-15" data-name="Unbenannter Verlauf 36" x1="45.91" y1="39.97" x2="54.92" y2="48.97" xlink:href="#Unbenannter_Verlauf_36"/>
    <linearGradient id="Unbenannter_Verlauf_27-39" data-name="Unbenannter Verlauf 27" x1="49.97" y1="35.89" x2="50.27" y2="36.18" xlink:href="#Unbenannter_Verlauf_27"/>
    <linearGradient id="Unbenannter_Verlauf_36-16" data-name="Unbenannter Verlauf 36" x1="59.71" y1="39.97" x2="68.72" y2="48.97" xlink:href="#Unbenannter_Verlauf_36"/>
    <linearGradient id="Unbenannter_Verlauf_36-17" data-name="Unbenannter Verlauf 36" x1="56.84" y1="44.36" x2="62.81" y2="50.33" xlink:href="#Unbenannter_Verlauf_36"/>
    <linearGradient id="Unbenannter_Verlauf_36-18" data-name="Unbenannter Verlauf 36" x1="62.73" y1="37.52" x2="63.15" y2="37.94" xlink:href="#Unbenannter_Verlauf_36"/>
    <linearGradient id="Unbenannter_Verlauf_36-19" data-name="Unbenannter Verlauf 36" x1="63.77" y1="35.89" x2="64.07" y2="36.18" xlink:href="#Unbenannter_Verlauf_36"/>
    <linearGradient id="Unbenannter_Verlauf_27-40" data-name="Unbenannter Verlauf 27" x1="49.7" y1="53.64" x2="50.01" y2="53.95" xlink:href="#Unbenannter_Verlauf_27"/>
    <linearGradient id="Unbenannter_Verlauf_36-20" data-name="Unbenannter Verlauf 36" x1="57.69" y1="46.67" x2="59.49" y2="48.47" xlink:href="#Unbenannter_Verlauf_36"/>
    <linearGradient id="Unbenannter_Verlauf_36-21" data-name="Unbenannter Verlauf 36" x1="63.5" y1="53.64" x2="63.81" y2="53.95" xlink:href="#Unbenannter_Verlauf_36"/>
    <linearGradient id="Unbenannter_Verlauf_27-41" data-name="Unbenannter Verlauf 27" x1="-1.15" y1="48.55" x2="7.01" y2="56.71" xlink:href="#Unbenannter_Verlauf_27"/>
    <linearGradient id="Unbenannter_Verlauf_27-42" data-name="Unbenannter Verlauf 27" x1="4.83" y1="49.75" x2="6.67" y2="51.59" xlink:href="#Unbenannter_Verlauf_27"/>
    <linearGradient id="Unbenannter_Verlauf_27-43" data-name="Unbenannter Verlauf 27" x1="25.96" y1="49.04" x2="32.26" y2="55.34" xlink:href="#Unbenannter_Verlauf_27"/>
    <linearGradient id="Unbenannter_Verlauf_27-44" data-name="Unbenannter Verlauf 27" x1="46.85" y1="52.65" x2="49.67" y2="55.46" xlink:href="#Unbenannter_Verlauf_27"/>
    <linearGradient id="Unbenannter_Verlauf_36-22" data-name="Unbenannter Verlauf 36" x1="53.24" y1="49.38" x2="61.39" y2="57.53" xlink:href="#Unbenannter_Verlauf_36"/>
    <linearGradient id="Unbenannter_Verlauf_36-23" data-name="Unbenannter Verlauf 36" x1="56.87" y1="45.73" x2="57.17" y2="46.02" xlink:href="#Unbenannter_Verlauf_36"/>
    <linearGradient id="Unbenannter_Verlauf_36-24" data-name="Unbenannter Verlauf 36" x1="65.87" y1="52.09" x2="69.04" y2="55.26" xlink:href="#Unbenannter_Verlauf_36"/>
    <linearGradient id="Unbenannter_Verlauf_36-25" data-name="Unbenannter Verlauf 36" x1="63.8" y1="55.51" x2="64.08" y2="55.8" xlink:href="#Unbenannter_Verlauf_36"/>
  </defs>
  <path class="cls-14" d="M64.77,56.21h-1.11c.2-.36.38-.73.56-1.1.17.37.35.74.55,1.1Z"/>
  <path class="cls-13" d="M127.6,89.73l-4.1,10.89h-48.97V33.15h24.06v56.57h29.01Z"/>
  <path class="cls-43" d="M5.58,0c-1.07,1.49-2.25,2.45-3.47,2.77-.72-.19-1.43-.6-2.11-1.23V0h5.58Z"/>
  <path class="cls-22" d="M19.38,0c-1.07,1.49-2.25,2.45-3.47,2.77-1.22-.32-2.4-1.28-3.47-2.77h6.94Z"/>
  <path class="cls-27" d="M60.79,0c-1.08,1.49-2.25,2.45-3.48,2.77-1.22-.32-2.4-1.28-3.47-2.77h6.95Z"/>
  <path class="cls-63" d="M1.71,3.5c-.51,1.56-1.09,2.96-1.71,4.16V2.06c.54.51,1.11.99,1.71,1.44Z"/>
  <path class="cls-26" d="M15.51,3.5c-1.69,5.12-4,8.42-6.5,9.08-2.5-.66-4.81-3.96-6.5-9.08,1.36-1.02,2.58-2.2,3.65-3.5h5.71c1.06,1.3,2.29,2.48,3.64,3.5Z"/>
  <path class="cls-5" d="M26.68,9.25c-1.18,1.81-2.49,2.97-3.87,3.33-2.5-.66-4.81-3.96-6.5-9.08,1.36-1.02,2.58-2.2,3.65-3.5h2.5l4.22,9.25Z"/>
  <path class="cls-65" d="M56.57,3.5c-1.69,5.12-4,8.42-6.51,9.08-2.17-.57-4.19-3.13-5.79-7.13l1.93-4.31s.04-.03.04-.05c.35-.35.67-.72.97-1.09h5.71c1.07,1.3,2.29,2.48,3.65,3.5Z"/>
  <path class="cls-50" d="M68.08,1.14v8.12c-1.18,1.81-2.5,2.96-3.87,3.32-.78-.21-1.54-.67-2.27-1.37-1.61-1.54-3.06-4.2-4.22-7.71,1.35-1.03,2.58-2.2,3.64-3.5h5.71c.32.39.65.77,1.01,1.14Z"/>
  <path class="cls-28" d="M57.72,3.5c1.16,3.51,2.61,6.17,4.22,7.71-1.61-1.53-3.07-4.19-4.23-7.71h.01Z"/>
  <path class="cls-12" d="M45.48,8.93c-.51-.71-.97-1.45-1.38-2.22.42.77.88,1.51,1.38,2.22Z"/>
  <path class="cls-18" d="M8.61,13.58c-.52,1.6-1.11,3.02-1.75,4.24-.76,1.46-1.59,2.63-2.47,3.47-.73.7-1.5,1.16-2.28,1.37-.72-.19-1.43-.6-2.11-1.23v-12.3c.82-1.12,1.53-2.32,2.11-3.58,1.47,3.17,3.72,5.93,6.5,8.03Z"/>
  <path class="cls-3" d="M6.86,17.82c-.76,1.47-1.59,2.64-2.47,3.47.88-.84,1.71-2.01,2.47-3.47Z"/>
  <path class="cls-7" d="M22.42,13.58c-1.69,5.12-4,8.42-6.51,9.08-2.5-.66-4.81-3.96-6.5-9.08,2.79-2.1,5.04-4.86,6.5-8.03,1.47,3.17,3.72,5.93,6.51,8.03Z"/>
  <path class="cls-53" d="M32.12,20.81c-.77.77-1.58,1.28-2.41,1.5-2.5-.66-4.81-3.96-6.5-9.08,1.41-1.06,2.68-2.29,3.78-3.65l5.13,11.23Z"/>
  <path class="cls-58" d="M50.02,13.58c-1.69,5.12-4,8.42-6.51,9.08-1.67-.44-3.25-2.06-4.62-4.6l5.18-11.41s.02.04.03.06c.41.77.87,1.51,1.38,2.22,1.26,1.77,2.8,3.34,4.54,4.65Z"/>
  <path class="cls-68" d="M63.82,13.58c-1.69,5.12-4,8.42-6.5,9.08-.78-.21-1.55-.67-2.28-1.37-1.61-1.54-3.06-4.2-4.22-7.71,1.74-1.32,3.27-2.89,4.53-4.65.51-.71.97-1.45,1.38-2.22.21-.38.41-.77.59-1.17,1.46,3.18,3.71,5.94,6.5,8.04Z"/>
  <path class="cls-67" d="M50.82,13.58c1.16,3.51,2.61,6.17,4.22,7.71-1.61-1.53-3.07-4.19-4.23-7.71h0Z"/>
  <path class="cls-39" d="M68.08,10.3v10.15c-1.31-1.58-2.49-3.93-3.46-6.87.69-.53,1.35-1.09,1.98-1.69.52-.5,1.02-1.03,1.48-1.59Z"/>
  <path class="cls-25" d="M66.6,11.89c.52-.51,1.01-1.04,1.48-1.59-.46.56-.96,1.09-1.48,1.59Z"/>
  <path class="cls-1" d="M9.01,15.36h.01c-.19.4-.38.79-.59,1.17.2-.38.4-.77.58-1.17Z"/>
  <path class="cls-66" d="M1.71,23.4c-.1.32-.21.63-.32.94-.22.6-.45,1.19-.69,1.74-.22.52-.46,1.01-.7,1.48v-5.61c.54.51,1.11.99,1.71,1.45Z"/>
  <path class="cls-2" d="M1.72,23.4c-.11.32-.21.63-.33.94.11-.31.22-.62.32-.94h.01Z"/>
  <path class="cls-48" d="M15.52,23.4c-.73,2.2-1.58,4.08-2.51,5.54l-3.84-8.3v11.79s-.1.04-.15.05c-2.51-.66-4.82-3.97-6.51-9.08,2.44-1.84,4.47-4.18,5.92-6.87.21-.38.4-.77.59-1.16.19.39.38.78.58,1.16.41.77.87,1.51,1.38,2.22,1.26,1.77,2.8,3.34,4.54,4.65Z"/>
  <path class="cls-55" d="M10.98,18.75c-.51-.71-.97-1.45-1.38-2.22.42.77.88,1.51,1.38,2.22Z"/>
  <path class="cls-57" d="M29.32,23.4c-1.69,5.11-4,8.42-6.5,9.08-2.51-.66-4.82-3.97-6.51-9.08,2.79-2.1,5.04-4.86,6.51-8.04,1.46,3.18,3.71,5.94,6.5,8.04Z"/>
  <path class="cls-54" d="M43.12,23.4c-1.69,5.11-4,8.42-6.5,9.08-1.41-.37-2.76-1.58-3.97-3.48-.94-1.47-1.79-3.37-2.53-5.6.76-.58,1.49-1.21,2.16-1.88l2.53,5.54,3.77-8.31c1.26,1.77,2.8,3.34,4.54,4.65Z"/>
  <path class="cls-33" d="M30.12,23.4c.74,2.23,1.59,4.13,2.53,5.6-.95-1.47-1.8-3.37-2.54-5.6h.01Z"/>
  <path class="cls-45" d="M56.92,23.4c-1.69,5.11-4,8.42-6.5,9.08-.85-.22-1.68-.75-2.47-1.56v-10.52l-2.82,6.1c-.19-.4-.37-.83-.55-1.27-.23-.58-.45-1.19-.66-1.83,2.78-2.1,5.03-4.86,6.5-8.04,1.46,3.18,3.71,5.94,6.5,8.04Z"/>
  <path class="cls-49" d="M68.08,21.04v8.12c-1.18,1.81-2.49,2.96-3.86,3.32-2.5-.66-4.81-3.97-6.5-9.08.69-.53,1.36-1.09,1.98-1.69.94-.9,1.79-1.9,2.55-2.96.76-1.06,1.42-2.2,1.97-3.39.96,2.1,2.27,4.02,3.86,5.68Z"/>
  <path class="cls-40" d="M59.7,21.71c.94-.91,1.79-1.9,2.55-2.96-.76,1.06-1.61,2.06-2.55,2.96Z"/>
  <path class="cls-24" d="M31.99,41.39c.88-.84,1.71-2.01,2.47-3.47-.76,1.47-1.59,2.64-2.47,3.47Z"/>
  <path class="cls-4" d="M36.22,33.68c-.11.32-.21.63-.33.94.11-.31.22-.62.32-.94h.01Z"/>
  <path class="cls-42" d="M50.02,33.68c-.11.32-.21.63-.33.94.11-.31.22-.62.32-.94h.01Z"/>
  <path class="cls-35" d="M57.9,26.81c.42.77.88,1.51,1.38,2.22-.51-.71-.97-1.45-1.38-2.22Z"/>
  <path class="cls-46" d="M63.82,33.68c-.11.32-.21.63-.33.94.11-.31.22-.62.32-.94h0Z"/>
  <path class="cls-44" d="M8.61,33.68c-1.69,5.12-4,8.42-6.5,9.08-.72-.19-1.43-.6-2.11-1.23v-12.3c.82-1.12,1.53-2.32,2.11-3.59.74,1.59,1.66,3.07,2.76,4.43.54.67,1.13,1.32,1.76,1.92.62.6,1.28,1.16,1.98,1.69Z"/>
  <path class="cls-59" d="M6.63,31.99c-.63-.6-1.22-1.25-1.76-1.92.55.67,1.13,1.31,1.76,1.92Z"/>
  <path class="cls-70" d="M22.41,33.68c-1.06,3.22-2.37,5.72-3.82,7.3l-5.2-11.22c1-1.27,1.84-2.65,2.52-4.12,1.47,3.18,3.72,5.94,6.5,8.04Z"/>
  <path class="cls-17" d="M36.21,33.68c-.1.32-.21.63-.32.94-.22.61-.45,1.19-.69,1.74-.24.56-.49,1.08-.74,1.56-.76,1.46-1.59,2.63-2.47,3.47-.73.7-1.5,1.16-2.28,1.37-2.5-.66-4.81-3.96-6.5-9.08,2.79-2.1,5.04-4.86,6.5-8.04,1.47,3.18,3.72,5.94,6.5,8.04Z"/>
  <path class="cls-10" d="M44.59,27.66l-5.23,11.32c-.87-1.42-1.66-3.21-2.35-5.3,2.79-2.1,5.04-4.86,6.5-8.04.32.69.68,1.37,1.08,2.02Z"/>
  <path class="cls-30" d="M50.01,33.68c-.1.32-.21.63-.32.94-.22.61-.45,1.19-.69,1.74-.24.56-.49,1.08-.74,1.56-.05.1-.1.2-.15.3-.06.09-.11.17-.16.26v-6.57c.65.63,1.34,1.22,2.06,1.77Z"/>
  <path class="cls-64" d="M63.81,33.68c-.1.32-.21.63-.32.94-.22.61-.45,1.19-.69,1.74-1.55,3.58-3.45,5.86-5.49,6.4-2.5-.66-4.81-3.96-6.5-9.08,2.44-1.84,4.47-4.18,5.92-6.87.21-.38.4-.77.59-1.16.18.39.37.78.58,1.16.41.77.87,1.51,1.38,2.22,1.26,1.77,2.79,3.34,4.53,4.65Z"/>
  <path class="cls-11" d="M57.32,25.65c-.19.39-.38.78-.59,1.16.2-.38.4-.77.58-1.17h0Z"/>
  <path class="cls-37" d="M68.08,30.39v10.16c-1.31-1.58-2.49-3.93-3.46-6.87,1.28-.97,2.44-2.07,3.46-3.29Z"/>
  <path class="cls-51" d="M29.32,43.49c-.11.32-.21.63-.33.94.11-.31.22-.62.32-.94h0Z"/>
  <path class="cls-47" d="M52.38,38.84c-.51-.71-.97-1.45-1.38-2.22.42.77.88,1.51,1.38,2.22Z"/>
  <path class="cls-23" d="M64.8,36.62c.42.77.88,1.51,1.38,2.22-.51-.71-.97-1.45-1.38-2.22Z"/>
  <path class="cls-29" d="M1.71,43.49c-.51,1.57-1.09,2.96-1.71,4.16v-5.61c.54.52,1.11,1,1.71,1.45Z"/>
  <path class="cls-52" d="M9.17,35.77v16.75s-.11.04-.16.05c-2.5-.66-4.81-3.96-6.5-9.08,2.79-2.1,5.04-4.86,6.5-8.04.05.11.1.22.16.32Z"/>
  <path class="cls-16" d="M29.31,43.49c-.1.32-.21.63-.32.94-.22.61-.45,1.19-.69,1.74-1.3,3.02-2.86,5.11-4.53,6.01l-5.02-10.85c1.68-1.71,3.06-3.7,4.06-5.88,1.47,3.18,3.72,5.94,6.5,8.04Z"/>
  <path class="cls-32" d="M39.11,39.53l-5.2,11.24c-1.44-1.58-2.74-4.07-3.8-7.28,2.79-2.1,5.04-4.86,6.5-8.04.67,1.46,1.51,2.82,2.5,4.08Z"/>
  <path class="cls-15" d="M56.92,43.49c-1.69,5.12-4,8.42-6.51,9.08-.85-.22-1.68-.75-2.46-1.56v-11.52c.71-.9,1.33-1.86,1.88-2.87.21-.38.4-.77.59-1.16.18.39.37.78.58,1.16.41.77.87,1.51,1.38,2.22,1.26,1.77,2.8,3.34,4.54,4.65Z"/>
  <path class="cls-56" d="M50.42,35.46c-.19.39-.38.78-.59,1.16.2-.38.4-.77.58-1.17h.01Z"/>
  <path class="cls-20" d="M68.08,41.13v8.11c-1.18,1.81-2.49,2.97-3.87,3.33-.78-.21-1.54-.67-2.27-1.37-1.61-1.54-3.06-4.2-4.22-7.71,1.74-1.32,3.27-2.89,4.53-4.65.51-.71.97-1.45,1.38-2.22.21-.38.4-.77.59-1.16.18.39.37.78.58,1.16.41.77.87,1.51,1.38,2.22.58.81,1.21,1.57,1.9,2.29Z"/>
  <path class="cls-69" d="M57.72,43.49c1.16,3.51,2.61,6.17,4.22,7.71-1.61-1.53-3.07-4.19-4.23-7.71h.01Z"/>
  <path class="cls-61" d="M62.25,38.84c.5-.71.96-1.45,1.38-2.22-.41.77-.87,1.51-1.38,2.22Z"/>
  <path class="cls-41" d="M64.21,35.45h.01c-.19.4-.38.79-.59,1.17.2-.38.4-.77.58-1.17Z"/>
  <path class="cls-36" d="M50.02,53.33c-.11.32-.21.63-.33.94.11-.31.22-.62.32-.94h.01Z"/>
  <path class="cls-8" d="M59.28,48.68c-.51-.71-.97-1.45-1.38-2.22.42.77.88,1.51,1.38,2.22Z"/>
  <path class="cls-19" d="M63.82,53.33c-.11.32-.21.63-.33.94.11-.31.22-.62.32-.94h0Z"/>
  <path class="cls-31" d="M8.61,53.33c-.34,1.04-.71,2-1.1,2.88H0v-7.33c.82-1.12,1.53-2.32,2.11-3.59.74,1.59,1.66,3.08,2.76,4.42.54.68,1.13,1.33,1.76,1.92.62.61,1.28,1.18,1.98,1.7Z"/>
  <path class="cls-21" d="M6.63,51.63c-.63-.59-1.22-1.24-1.76-1.92.55.68,1.13,1.32,1.76,1.92Z"/>
  <path class="cls-62" d="M33.74,51.13l-2.35,5.08h-5.75l-1.63-3.52c2.42-2.01,4.38-4.53,5.7-7.4,1,2.17,2.37,4.14,4.03,5.84Z"/>
  <path class="cls-9" d="M50.01,53.33c-.1.32-.21.63-.32.94-.22.61-.45,1.19-.69,1.74-.03.07-.06.13-.09.2h-.96v-4.66c.64.64,1.33,1.23,2.06,1.78Z"/>
  <path class="cls-6" d="M63.81,53.33c-.1.32-.21.63-.32.94-.22.61-.45,1.19-.69,1.74-.03.07-.06.13-.09.2h-10.8c-.39-.88-.76-1.84-1.1-2.88,2.44-1.84,4.47-4.18,5.92-6.87.21-.38.4-.77.59-1.16.18.39.37.78.58,1.16.41.77.87,1.51,1.38,2.22,1.26,1.77,2.79,3.34,4.53,4.65Z"/>
  <path class="cls-34" d="M57.32,45.3c-.19.39-.38.78-.59,1.16.2-.38.4-.77.58-1.17h0Z"/>
  <path class="cls-38" d="M68.08,50.04v6.17h-2.35c-.4-.88-.77-1.84-1.11-2.88,1.28-.97,2.44-2.07,3.46-3.29Z"/>
  <path class="cls-60" d="M64.22,55.11c-.18.37-.36.74-.56,1.1.19-.36.38-.73.55-1.11h.01Z"/>
</svg>